<?xml version="1.0" encoding="UTF-8" standalone="no"?>
<!-- Created with Inkscape (http://www.inkscape.org/) -->

<svg
   xmlns:dc="http://purl.org/dc/elements/1.1/"
   xmlns:cc="http://creativecommons.org/ns#"
   xmlns:rdf="http://www.w3.org/1999/02/22-rdf-syntax-ns#"
   xmlns:svg="http://www.w3.org/2000/svg"
   xmlns="http://www.w3.org/2000/svg"
   xmlns:sodipodi="http://sodipodi.sourceforge.net/DTD/sodipodi-0.dtd"
   xmlns:inkscape="http://www.inkscape.org/namespaces/inkscape"
   width="210mm"
   height="297mm"
   viewBox="0 0 210 297"
   version="1.1"
   id="svg8"
   inkscape:version="0.92.4 (5da689c313, 2019-01-14)"
   sodipodi:docname="mic.svg">
  <defs
     id="defs2">
    <inkscape:perspective
       sodipodi:type="inkscape:persp3d"
       inkscape:vp_x="0 : 148.5 : 1"
       inkscape:vp_y="0 : 1000 : 0"
       inkscape:vp_z="210 : 148.5 : 1"
       inkscape:persp3d-origin="105 : 99 : 1"
       id="perspective1009" />
    <inkscape:path-effect
       effect="spiro"
       id="path-effect1001"
       is_visible="true" />
  </defs>
  <sodipodi:namedview
     id="base"
     pagecolor="#ffffff"
     bordercolor="#666666"
     borderopacity="1.0"
     inkscape:pageopacity="0.0"
     inkscape:pageshadow="2"
     inkscape:zoom="0.49497475"
     inkscape:cx="483.37952"
     inkscape:cy="456.28538"
     inkscape:document-units="mm"
     inkscape:current-layer="layer1"
     showgrid="false"
     inkscape:snap-global="true"
     inkscape:snap-bbox="false"
     inkscape:snap-smooth-nodes="true"
     inkscape:window-width="1920"
     inkscape:window-height="1017"
     inkscape:window-x="-8"
     inkscape:window-y="-8"
     inkscape:window-maximized="1" />
  <metadata
     id="metadata5">
    <rdf:RDF>
      <cc:Work
         rdf:about="">
        <dc:format>image/svg+xml</dc:format>
        <dc:type
           rdf:resource="http://purl.org/dc/dcmitype/StillImage" />
        <dc:title></dc:title>
      </cc:Work>
    </rdf:RDF>
  </metadata>
  <g
     inkscape:label="Ebene 1"
     inkscape:groupmode="layer"
     id="layer1">
    <path
       style="opacity:1;fill:#000000;stroke:none;stroke-width:0.99999994px;stroke-linecap:butt;stroke-linejoin:miter;stroke-opacity:1"
       d="M 128.45312 33.375 C 74.487888 33.3726 30.738598 112.07509 30.738281 209.16016 C 30.738598 298.27691 67.603229 371.89329 115.39258 383.37695 C 115.39258 383.37695 115.00424 397.18412 115.52344 404.05859 C 115.73365 406.8384 115.67295 411.15304 116.65039 413.76367 C 117.5918 416.27861 118.40526 419.10742 121.08789 419.10742 L 131.35938 419.10742 L 131.35938 423.48047 L 125.44336 423.54883 L 125.44336 425.42969 L 109.58398 425.42969 C 105.47543 425.43269 102.14844 432.97826 102.14844 442.28516 C 102.14844 451.59205 105.47543 459.13712 109.58398 459.14062 L 121.94336 459.07812 L 124.13281 456.88672 L 131.35938 456.88672 L 131.35938 459.62109 L 122.96484 459.62109 L 122.96484 470.90039 L 131.46875 470.90039 L 131.46875 502.40039 L 117.64648 502.40039 L 117.64648 537.30859 L 122.85547 537.30859 L 122.85547 639.29102 L 104.84961 639.29102 L 104.84961 655.54492 L 112.56836 655.54492 C 112.56836 655.54492 112.68394 660.82963 112.66992 663.52148 C 112.66922 681.392 127.13672 695.87984 144.98633 695.88086 C 161.77864 695.86956 175.76683 682.98723 177.17383 666.23438 C 182.91402 676.008 193.51668 682.57031 205.66211 682.57031 C 206.28963 682.56731 206.91476 682.54356 207.54102 682.50586 L 206.81445 696.05859 L 209.69727 696.0332 L 209.69727 689.16602 L 216.48633 689.16602 L 216.48633 695.97656 L 220.3125 695.97656 L 221.15234 681.23828 L 221.27344 681.26758 L 229.79102 673.62695 C 229.79102 673.62695 256.83514 672.5625 271.56445 672.5625 C 275.23049 671.87481 276.66406 670.05029 276.66406 666.60352 L 276.66406 657.82031 C 276.66406 657.82031 277.92978 659.35371 278.79102 659.79297 C 281.87949 661.36816 285.54374 661.47592 288.99414 661.81445 C 296.20897 662.52228 310.74219 661.81445 310.74219 661.81445 L 310.74219 682.54297 L 323.01953 682.54297 C 325.59084 682.54297 328.16115 682.54287 330.73047 682.54492 L 333.00391 682.54492 L 333.00391 704.06445 L 337.32031 704.06445 L 337.32031 718.80273 L 335.61914 718.80273 L 341.41211 763.375 L 349.16211 763.375 L 349.16211 765.68359 L 341.50195 765.68359 L 341.50195 772.70508 L 349.16211 772.70508 L 349.16211 774.19727 L 343.15039 774.19727 L 343.15039 777.07227 L 349.16211 777.07227 L 349.16211 778.83594 L 343.89453 778.83594 L 343.89453 781.71094 L 349.16211 781.71094 L 349.16211 783.47852 L 344.32031 783.47852 L 344.32031 786.34961 L 349.16211 786.34961 L 349.16211 788.11719 L 344.85352 788.11719 L 344.85352 790.99023 L 349.16211 790.99023 L 349.16211 792.75586 L 345.27734 792.75586 L 345.27734 795.62891 L 349.16211 795.62891 L 349.16211 797.39844 L 346.07422 797.39844 L 346.07422 800.27148 L 349.16211 800.27148 L 349.16211 802.50391 L 349.16211 810.00781 L 354.74023 815.58789 C 353.36534 834.54014 356.05613 853.73883 362.60547 871.58398 C 372.60419 898.82799 391.2178 922.05882 413.39648 940.04688 C 430.7057 954.08566 449.67239 964.80852 466.45508 977.41211 C 483.19347 989.9824 498.18075 1005.0645 505.32617 1023.416 C 509.24894 1033.4908 510.77944 1067.4036 509.73047 1078.1641 L 522.82031 1078.1836 C 524.07213 1065.3418 522.26377 1030.6621 517.58203 1018.6387 C 509.08505 996.81614 492.09026 980.21708 474.35547 966.89844 C 456.66475 953.61302 437.85786 942.9502 421.68359 929.83203 C 401.01699 913.07024 383.96893 891.60089 374.96094 867.05664 C 368.97019 850.7332 366.55726 833.05808 367.93164 815.7207 L 373.64062 810.00781 L 373.64062 802.50586 L 373.64062 800.27344 L 376.72461 800.27344 L 376.72461 797.39844 L 373.64062 797.39844 L 373.64062 795.63086 L 377.52148 795.63086 L 377.52148 792.75781 L 373.64062 792.75781 L 373.64062 790.99219 L 377.94922 790.99219 L 377.94922 788.11914 L 373.64062 788.11914 L 373.64062 786.34961 L 378.48047 786.34961 L 378.48047 783.48047 L 373.64062 783.48047 L 373.64062 781.71094 L 378.9082 781.71094 L 378.9082 778.83789 L 373.64062 778.83789 L 373.64062 777.07227 L 379.65234 777.07227 L 379.65234 774.19922 L 373.64062 774.19922 L 373.64062 772.70703 L 381.30078 772.70703 L 381.30078 765.68555 L 373.64062 765.68555 L 373.64062 763.37695 L 381.14648 763.37695 L 387.18359 718.80469 L 385.48242 718.80469 L 385.48242 690.04492 L 390.94336 690.04492 L 390.94336 682.54297 L 408.62695 682.54297 L 408.62695 661.81641 C 408.62695 661.81641 423.30203 662.531 430.58594 661.81641 C 434.03665 661.47814 437.70024 661.37163 440.78906 659.79492 C 443.15705 658.58619 445.00719 656.46915 446.63477 654.36523 C 448.12685 652.43673 449.42539 650.26709 450.10938 647.92578 C 451.76389 642.26265 451.41602 630.27344 451.41602 630.27344 L 507.26172 682.9375 L 509.51367 680.54492 L 510.34961 681.5332 L 512.00977 695.97656 L 515.83203 695.97656 L 515.83203 689.16406 L 522.62305 689.16406 L 522.62305 696.03125 L 525.50781 696.05859 L 516.61133 615.05859 L 517.87891 615.05859 L 640.17773 795.95117 L 644.95898 792.7168 C 681.86864 847.54209 718.1402 900.39934 754.87891 954.65234 L 754.87891 864.95508 C 732.42689 831.3671 709.9999 797.78221 687.34961 764.05469 L 690.95703 761.61523 L 677.13086 741.16211 C 687.87228 737.49869 695.34938 725.03283 695.35547 710.78125 C 695.35645 693.40737 684.37229 679.32286 670.82227 679.32422 L 644.63672 679.32422 L 635.32227 679.32422 L 571.6543 585.15234 L 574.09375 581.875 L 558.30664 562.76172 C 558.30664 562.76172 559.51653 548.73407 558.7793 541.77539 C 558.2951 537.20628 556.94795 532.75357 555.58789 528.36523 C 554.36151 524.40784 553.38782 520.23552 551.12305 516.76758 C 547.09872 510.60532 543.1748 505.61054 537.94141 500.48438 C 537.51647 500.37817 535.28516 500.05859 535.28516 500.05859 L 510.74219 500.05859 L 522.42578 382.35938 L 518.27734 382.35938 L 518.27734 388.74219 L 511.58203 388.74219 L 511.58203 382.7832 L 508.81836 382.7832 L 507.46875 396.52539 L 438.95117 471.00781 L 438.97852 471.0293 L 425.06055 471.0293 L 415.91211 449.48828 L 416.625 354.90039 L 423.2168 354.90039 L 423.2168 322.54688 L 419.47656 322.54688 C 419.57106 319.72186 419.76644 313.49053 419.7207 309.35156 C 419.34275 280.12258 418.2703 249.42775 414.62109 218.89453 C 414.13626 214.81375 414.05581 210.65865 413.13281 206.6543 C 412.42483 203.58264 411.66067 200.42393 410.05078 197.71484 C 408.897 195.77278 407.38492 193.93074 405.48242 192.71484 C 403.00766 191.13324 399.97748 190.55291 397.08398 190.05469 C 393.50266 189.43812 389.5264 189.25341 385.53711 189.22266 C 381.54774 189.19206 377.54206 189.31194 373.9082 189.30664 C 365.93209 189.29454 357.95639 189.65637 349.99023 190.05469 C 341.2288 190.49288 332.43172 190.68621 323.73828 191.86133 C 320.72901 192.26811 317.62856 192.54117 314.81055 193.67383 C 311.22097 195.1166 307.6788 197.8331 305.0293 201.01367 C 296.48468 211.27118 296.79064 257.10066 296.63086 276.46484 C 296.55886 291.6357 296.61795 319.76698 296.62695 322.54688 L 293.11133 322.54688 L 293.11133 354.90039 L 299.70312 354.90039 L 300.41992 449.83789 L 289.9082 469.54102 L 217.1582 396.0918 L 215.85156 382.78125 L 213.08594 382.78125 L 213.08594 388.74023 L 206.38867 388.74023 L 206.38867 382.35742 L 202.24414 382.35742 L 214.39258 504.74219 L 214.09375 560.12695 L 211.05469 616.85938 C 209.27328 616.55059 207.46983 616.38838 205.66211 616.375 C 190.95637 616.37504 178.50733 625.99688 174.21484 639.28906 L 166.65234 639.28906 L 166.65234 537.30469 L 171.86133 537.30469 L 171.86133 502.39844 L 158.04297 502.39844 L 158.04297 470.89844 L 166.54688 470.89844 L 166.54688 459.61914 L 153.25586 459.61914 L 153.25586 456.88281 L 158.14258 456.88281 C 162.50126 456.88281 166.0332 449.33677 166.0332 440.02734 C 166.0332 430.71795 162.50126 423.17187 158.14258 423.17188 L 153.25586 423.22656 L 153.25586 419.11133 C 155.98717 419.13783 158.89086 419.46545 161.37109 418.35352 C 163.37758 417.45387 165.01586 415.70154 166.18555 413.83789 C 167.16373 412.27948 167.55897 410.38959 167.83789 408.57031 C 169.1404 400.07382 167.83789 382.78125 167.83789 382.78125 C 214.51759 369.54505 250.21458 296.85644 250.21484 209.16016 C 250.21476 112.07729 206.46983 33.375918 152.50586 33.375 L 128.45312 33.375 z M 506.36914 407.7793 L 496.80469 505.38086 L 496.80469 516.40625 L 486.52734 516.40625 L 460.66992 516.40625 L 453.64062 523.44141 L 443.23047 523.40234 L 443.23047 529.00391 L 432.41016 529.00391 L 432.41016 512.86719 L 434.0625 512.86719 L 434.0625 504.5918 L 445.78711 504.5918 L 445.78711 473.63086 L 506.36914 407.7793 z M 218.54102 410.25195 L 270.71484 482.13672 L 270.71484 509.95703 L 283.15039 509.95703 L 283.15039 529.00586 L 227.86328 529.00586 L 227.86328 505.38086 L 218.54102 410.25195 z M 241.63281 430.48242 L 283.04492 472.29102 L 274.23438 475.4043 L 241.63281 430.48242 z M 300.5293 464.09961 L 300.57422 470.25 L 298.67188 470.26562 L 297.24023 470.26562 L 300.5293 464.09961 z M 296.54297 503.7832 L 300.83008 503.7832 L 301.02148 529.00586 L 296.54297 529.00586 L 296.54297 503.7832 z M 227.86328 547.66211 L 244.50391 547.66211 L 244.50391 609.52539 C 244.50391 615.03454 241.85744 621.43049 237.0625 623.56445 C 235.19246 624.28536 233.01968 624.0136 231.05078 623.64062 C 229.6146 623.36851 228.08285 622.95415 226.98828 621.98438 C 225.80065 620.74114 224.77148 619.3532 224.77148 617.81055 C 225.87695 600.44528 227.86523 563.48437 227.86523 563.48438 L 227.86328 547.66211 z M 270.35938 547.66211 L 283.15039 547.66211 L 283.15039 579.09375 L 270.35938 579.09375 L 270.35938 547.66211 z M 296.54297 547.66211 L 301.16211 547.66211 L 301.32422 569.02148 L 296.54297 569.02148 L 296.54297 549.65039 L 296.54297 547.66211 z M 432.41016 547.66211 L 447.88672 547.66211 L 446.16211 570.96484 L 432.41016 570.96484 L 432.41016 547.66211 z M 477.64258 553.9043 L 500.04883 591.73828 L 508.95703 669.38867 L 453.36523 603.95898 L 457.06445 554.0332 C 469.16775 554.0332 470.63235 553.9043 477.64258 553.9043 z M 296.52344 603.98828 L 304.10938 603.98828 L 304.10938 617.6543 L 309.66992 643.07812 L 292.51953 610.93555 L 296.52344 603.98828 z M 436.01758 604.7793 L 443.65625 604.7793 L 443.04297 613.02539 L 435.18555 605.61133 L 436.01758 604.7793 z M 430.37109 610.43164 L 442.39453 621.77344 C 442.39453 621.77344 443.75833 639.35918 440.51172 647.21875 C 440.02624 648.39449 438.02539 650.11328 438.02539 650.11328 C 438.02539 650.11328 432.25545 651.52951 429.30859 651.81445 C 424.41766 652.2878 414.56641 651.81445 414.56641 651.81445 L 414.56641 644.5293 L 406.3457 644.5293 L 412.22461 617.6543 L 412.22461 617.36719 L 423.43945 617.36719 L 430.37109 610.43164 z M 452.65039 613.625 L 488.8125 656.1875 L 452.06445 621.5293 L 452.65039 613.625 z M 288.51367 617.87891 L 304.80078 648.4043 L 304.80078 651.81445 C 304.80078 651.81445 295.09186 652.28062 290.27148 651.81445 C 287.32444 651.52948 284.11381 651.60204 281.55469 650.11328 C 280.45561 649.47379 279.06837 647.21875 279.06836 647.21875 L 279.06836 619.12305 L 287.79492 619.12305 L 288.51367 617.87891 z "
       transform="scale(0.26458333)"
       id="path828" />
  </g>
</svg>
